# xmcd
#
# Track frame offsets:
#	150
#	15715
#	27584
#	39035
#	54603
#	70457
#	80971
#	92151
#	104247
#	120036
#	134002
#	148992
#	164170
#
# Disc length: 2449 seconds
#
# Revision: 1
# Processed by: cddbd v1.5.1PL0 Copyright (c) Steve Scherf et al.
# Submitted via: audiograbber 1.83.01
#
DISCID=c5098f0d
DTITLE=Cheek to Cheek - Rhythm and Swing
DYEAR=2001
DGENRE=Swing
TTITLE0=Cheek to Cheek
TTITLE1=It's Almost Like Being in Love
TTITLE2=It Had To Be You
TTITLE3=I've Got You Under My Skin
TTITLE4=Unforgettable
TTITLE5=It Don't Mean A Thing
TTITLE6=Fly Me To The Moon
TTITLE7=Don't Get Around Much Anymore
TTITLE8=I Get A Kick Out Of You
TTITLE9=You Make Me Feel So Young
TTITLE10=Fever
TTITLE11=That Old Black Magic
TTITLE12=When I Fall In Love
EXTD=
EXTT0=
EXTT1=
EXTT2=
EXTT3=
EXTT4=
EXTT5=
EXTT6=
EXTT7=
EXTT8=
EXTT9=
EXTT10=
EXTT11=
EXTT12=
PLAYORDER=
